<svg xmlns="http://www.w3.org/2000/svg" fill="none" viewBox="0 0 29 25" height="25" width="29">
<g clip-path="url(#clip0)">
<path stroke-linejoin="round" stroke-linecap="round" stroke-width="2" stroke="#2186D0" d="M9 23C9.55228 23 10 22.5523 10 22C10 21.4477 9.55228 21 9 21C8.44772 21 8 21.4477 8 22C8 22.5523 8.44772 23 9 23Z"></path>
<path stroke-linejoin="round" stroke-linecap="round" stroke-width="2" stroke="#2186D0" d="M20 23C20.5523 23 21 22.5523 21 22C21 21.4477 20.5523 21 20 21C19.4477 21 19 21.4477 19 22C19 22.5523 19.4477 23 20 23Z"></path>
<path stroke-linejoin="round" stroke-linecap="round" stroke-width="3" stroke="#2186D0" d="M1 2H5L7.68 15.39C7.77144 15.8504 8.02191 16.264 8.38755 16.5583C8.75318 16.8526 9.2107 17.009 9.68 17H19.4C19.8693 17.009 20.3268 16.8526 20.6925 16.5583C21.0581 16.264 21.3086 15.8504 21.4 15.39L23 7H6"></path>
</g>
<rect stroke="white" fill="#2186D0" rx="2.5" height="9" width="14" y="0.5" x="14.5"></rect>
<path fill="white" d="M21.68 8.048C21.2533 8.048 20.8533 8.03733 20.48 8.016C20.112 7.99467 19.7866 7.96533 19.504 7.928V7.296H21.392C21.728 7.296 21.9973 7.24533 22.2 7.144C22.408 7.03733 22.512 6.824 22.512 6.504V6.16C22.512 5.968 22.4666 5.81867 22.376 5.712C22.2853 5.6 22.1653 5.52 22.016 5.472C21.872 5.424 21.7226 5.39733 21.568 5.392L20.072 5.328V4.728L21.536 4.664C21.808 4.648 22.0266 4.58933 22.192 4.488C22.3573 4.38667 22.44 4.21333 22.44 3.968V3.632C22.44 3.37067 22.3493 3.17067 22.168 3.032C21.992 2.888 21.7173 2.816 21.344 2.816H19.68V2.184C19.9413 2.14667 20.2373 2.11467 20.568 2.088C20.8986 2.06133 21.2613 2.05067 21.656 2.056C22.1786 2.06133 22.5706 2.18933 22.832 2.44C23.0986 2.69067 23.232 3.032 23.232 3.464V3.944C23.232 4.17867 23.1866 4.37067 23.096 4.52C23.0106 4.66933 22.904 4.784 22.776 4.864C22.6533 4.944 22.5333 5 22.416 5.032C22.544 5.064 22.6773 5.128 22.816 5.224C22.96 5.32 23.08 5.45333 23.176 5.624C23.2773 5.79467 23.328 6.00533 23.328 6.256V6.64C23.328 7.09867 23.1813 7.448 22.888 7.688C22.6 7.928 22.1973 8.048 21.68 8.048Z"></path>
<defs>
<clipPath id="clip0">
<rect transform="translate(0 1)" fill="white" height="24" width="24"></rect>
</clipPath>
</defs>
</svg>



