<svg xmlns="http://www.w3.org/2000/svg" fill="none" viewBox="0 0 24 24" height="24" width="24">
<path fill="#FCC21B" d="M13.6104 10.9424C13.4886 11.1636 13.3667 11.3868 13.2504 11.608L13.1529 11.7918L13.1436 11.8068C13.4867 12.2624 13.7811 12.7518 14.0136 13.2486C14.0473 13.318 14.0792 13.3893 14.1111 13.4605C14.4429 13.363 14.7767 13.3086 15.1029 13.2955C14.8573 12.6449 14.4786 11.9699 13.9217 11.2874C13.8242 11.1693 13.7173 11.0568 13.6104 10.9424Z"></path>
<path fill="#FCC21B" d="M14.6119 15.9673C14.5425 15.9673 14.4712 15.9711 14.4 15.9786C14.0119 17.2048 12.7519 17.7411 11.4206 17.5761C9.32998 17.3192 7.41186 15.7292 6.76873 13.7323C6.63748 13.3329 6.59248 12.9354 6.57748 12.5117C6.53998 11.4204 6.74998 10.2523 7.84311 9.80043L7.85623 9.79481C7.89186 9.77981 7.92748 9.77043 7.96311 9.75918C7.88436 9.64105 7.80373 9.5173 7.72686 9.38043C7.61811 9.1873 7.55248 8.98293 7.51311 8.78418C6.34123 9.19293 5.62686 10.2279 5.12623 11.3679C4.64811 12.4592 1.54123 20.8498 1.54123 20.8498L1.12498 21.9748C0.98248 22.3648 0.76123 22.7567 0.76123 23.1823C0.76123 23.6792 1.20373 24.0186 1.70248 23.8798C2.03623 23.7861 2.40373 23.6136 2.74311 23.4786C3.46123 23.1861 4.79248 22.6104 4.79248 22.6104L10.3575 20.3192C10.3575 20.3192 13.0406 19.3479 14.1694 18.2848C14.7169 17.7692 15.1556 17.0267 15.3487 16.1398C15.3094 16.1192 15.2681 16.0967 15.2269 16.0798C15.0394 16.0029 14.8387 15.9673 14.6119 15.9673Z"></path>
<path fill="#FCC21B" d="M10.4402 8.91384C10.5845 9.18946 10.7439 9.50259 10.8039 9.89071C11.0702 10.0032 11.3252 10.1382 11.567 10.2976C11.6514 10.0276 11.7395 9.76134 11.8314 9.48946C11.792 9.46509 11.7527 9.43696 11.7133 9.41446C11.3177 9.18946 10.8733 8.99821 10.4102 8.85571C10.4214 8.87634 10.4308 8.89321 10.4402 8.91384Z"></path>
<path fill="#D7598B" d="M20.9869 5.99615C20.9569 6.18365 20.9644 6.4499 20.9944 6.63365C21.0262 6.83991 21.0731 7.05928 21.1481 7.25428C21.255 7.52803 21.3862 7.4324 21.6544 7.3949C21.84 7.37053 22.0125 7.38365 22.1962 7.34615C22.3894 7.30678 22.5806 7.25615 22.7737 7.21865C23.2275 7.1324 23.4544 7.03115 23.3587 6.55303C23.2894 6.20803 23.175 5.8649 23.085 5.52365C23.0025 5.45053 22.8431 5.49178 22.7456 5.51428C22.5731 5.55365 22.4025 5.56303 22.23 5.59303C21.9187 5.64365 21.5925 5.68115 21.2869 5.75428C21.1312 5.78803 21.0112 5.8349 20.9869 5.99615Z"></path>
<path fill="#40C0E7" d="M18.5385 11.6251C18.6097 11.7882 18.7841 11.747 18.9547 11.7845C19.3335 11.8707 19.7179 11.8614 20.106 11.8614C20.2504 11.8614 20.616 11.9157 20.7191 11.7864C20.8016 11.6814 20.7304 11.4732 20.7191 11.3514L20.6741 10.8751C20.6666 10.8001 20.6797 10.3089 20.616 10.2676C20.5072 10.1945 20.301 10.2301 20.1772 10.232C19.9504 10.2395 19.7272 10.2676 19.4966 10.2676C19.1985 10.2676 18.876 10.2714 18.5872 10.3426C18.486 10.6107 18.5141 10.8901 18.5141 11.1845C18.5141 11.3214 18.4841 11.4976 18.5385 11.6251Z"></path>
<path fill="#D7598B" d="M17.2347 19.7231C17.0791 19.4925 17.0022 19.1831 16.6553 19.2169C16.3291 19.2488 16.0403 19.5075 15.7535 19.6481C15.5678 19.7381 15.4328 19.8994 15.3953 20.1019C15.3522 20.3325 15.4478 20.5163 15.5585 20.7131C15.641 20.8613 15.6953 21.0319 15.761 21.1875C15.8285 21.3488 15.9316 21.4931 16.001 21.6525C16.0478 21.765 16.0328 21.7556 16.136 21.795C16.1885 21.8138 16.2747 21.8288 16.331 21.8306C16.6591 21.84 17.0153 21.5081 17.2535 21.3131C17.4447 21.1594 17.8272 21.0619 17.7878 20.7713C17.7597 20.5556 17.6097 20.3475 17.5066 20.1619C17.4203 20.01 17.3285 19.8638 17.2347 19.7231Z"></path>
<path fill="#40C0E7" d="M20.8986 21.2981C20.8555 21.27 20.8142 21.2531 20.7767 21.2475C20.578 21.2118 20.4467 21.4518 20.2892 21.6075C20.0998 21.7893 19.8748 21.9337 19.7023 22.1325C19.5167 22.35 19.6611 22.545 19.8523 22.6612C20.0605 22.7868 20.2461 22.9443 20.4523 23.0756C20.6361 23.1937 20.7842 23.2987 20.9886 23.1712C21.1742 23.055 21.2773 22.8506 21.4048 22.68C21.6411 22.3612 22.0442 22.1043 21.6486 21.7537C21.4273 21.5568 21.1423 21.4593 20.8986 21.2981Z"></path>
<path fill="#40C0E7" d="M1.68716 10.3237C1.69653 10.2375 1.94028 9.54748 1.86716 9.52686C1.70028 9.48561 1.54278 9.40686 1.37403 9.36186C1.17903 9.31123 0.978407 9.27186 0.796532 9.18186C0.577157 9.07311 0.442157 9.12748 0.350282 9.24936C0.220907 9.42186 0.179657 9.73123 0.117782 9.92061C0.069032 10.0687 0.039032 10.2375 0.144032 10.3425C0.264032 10.4606 0.462782 10.5281 0.618407 10.5787C0.813407 10.6425 1.03091 10.755 1.23153 10.7737C1.50528 10.8037 1.65903 10.5562 1.68716 10.3237Z"></path>
<path fill="#40C0E7" d="M12.8677 3.66383C13.1115 3.77258 13.3477 3.83446 13.5971 3.90571C13.6852 3.93196 13.7415 3.97508 13.8333 3.92633C13.9515 3.86633 14.0827 3.65821 14.1483 3.54383C14.304 3.26071 14.4183 2.98133 14.5252 2.68321C14.5833 2.52383 14.7558 2.26508 14.7127 2.09633C14.6752 1.95383 14.469 1.86571 14.3527 1.80383C14.1971 1.72321 14.049 1.61446 13.8915 1.54508C13.689 1.45696 13.4115 1.36133 13.194 1.32946C13.074 1.31071 12.9896 1.35946 12.924 1.43633C12.864 1.50571 12.819 1.59758 12.774 1.68196C12.5471 2.11696 12.2677 2.77133 12.2771 3.27383C12.2808 3.51196 12.6877 3.58321 12.8677 3.66383Z"></path>
<path fill="#D7598B" d="M3.12213 6.24375C3.25901 6.45375 3.38088 6.645 3.54213 6.84375C3.69963 7.035 3.81213 7.0725 4.00526 6.91313C4.12713 6.81563 4.26588 6.73875 4.38213 6.63375C4.49276 6.53625 4.58463 6.4125 4.69526 6.31125C4.77401 6.23813 4.92963 6.165 4.97463 6.06375C5.03651 5.92125 4.90713 5.7975 4.82838 5.6925C4.73088 5.56125 4.65588 5.41875 4.54901 5.2875C4.41213 5.1225 4.26401 4.96688 4.11026 4.81313C3.98463 4.6875 3.83276 4.49438 3.69026 4.39688C3.65276 4.3725 3.60963 4.35563 3.56463 4.35C3.39401 4.32563 3.19151 4.42313 3.05838 4.50188C2.87651 4.60875 2.70026 4.76813 2.54088 4.90875C2.29151 5.13 2.53338 5.42063 2.67963 5.63063C2.82588 5.83313 2.98338 6.03 3.12213 6.24375Z"></path>
<path fill="#40C0E7" d="M3.13665 1.86956C3.26228 2.00456 3.4179 2.16768 3.59415 2.24456C3.74978 2.31393 3.90915 2.17518 4.03478 2.09831C4.1754 2.01206 4.28978 1.88643 4.39478 1.76081C4.4904 1.64456 4.61978 1.51893 4.69103 1.38393C4.77353 1.23018 4.66103 1.17206 4.54665 1.08018C4.40978 0.967681 4.27103 0.851431 4.15478 0.716431C3.99728 0.532681 3.83978 0.326431 3.6729 0.157681C3.61665 0.0995558 3.54915 0.0845558 3.4779 0.0976808C3.25478 0.135181 2.9904 0.448306 2.85915 0.551431C2.75415 0.632056 2.5704 0.774556 2.53853 0.907681C2.49915 1.05768 2.58728 1.20206 2.66228 1.32768C2.78415 1.53018 2.97165 1.69331 3.13665 1.86956Z"></path>
<path fill="#ED6C30" d="M8.59868 5.47321C8.85743 6.36946 8.16743 7.06134 8.09243 7.91071C8.06993 8.15634 8.06993 8.40196 8.11118 8.63821C8.13743 8.79196 8.18055 8.94196 8.25743 9.07884C8.35868 9.25884 8.47493 9.42196 8.5818 9.59071C8.6868 9.75384 8.78055 9.91884 8.8443 10.1082C8.98493 10.5282 8.88743 10.907 8.82743 11.3232C8.77868 11.6551 8.60993 11.9682 8.40743 12.2307C8.34555 12.3113 8.17493 12.4145 8.21618 12.5326C8.2218 12.5532 8.2593 12.5607 8.31368 12.5607C8.53868 12.5607 9.0693 12.4238 9.14618 12.3882C9.48368 12.2251 9.68055 11.8951 9.85493 11.5763C10.1137 11.1038 10.2806 10.5526 10.2074 10.0107C10.1924 9.88696 10.1587 9.77071 10.1174 9.65821C9.9918 9.32259 9.78368 9.02259 9.66555 8.67946C9.65055 8.63821 9.63555 8.59696 9.6243 8.55384C9.4518 7.88259 9.86618 7.22446 10.2149 6.69009C10.5581 6.16696 10.6874 5.39821 10.4437 4.79821C10.3199 4.49446 10.1212 4.19071 9.8793 3.96759C9.59243 3.70134 9.15555 3.45946 9.2043 3.00009C9.24555 2.60071 9.51555 2.18071 9.71993 1.85071C9.82118 1.68384 10.1399 1.34259 10.1287 1.15134C10.1193 0.956338 9.84743 0.858838 9.71805 0.744463C9.42555 0.485713 9.19305 0.286963 8.81805 0.168838C8.76144 0.148643 8.7019 0.137875 8.6418 0.136963C8.39993 0.136963 8.31555 0.356338 8.18055 0.592588C7.93305 1.02946 7.6893 1.49071 7.5243 1.96321C7.21305 2.84071 7.16618 3.74634 7.8393 4.56759C8.0718 4.85446 8.50118 5.13571 8.59868 5.47321Z"></path>
<path fill="#ED6C30" d="M11.6397 13.0389C11.6866 13.0877 11.7297 13.1083 11.7691 13.1083C11.8422 13.1083 11.9003 13.0333 11.9472 12.9452C11.9828 12.8777 12.0109 12.8083 12.0334 12.7352C12.1591 12.3133 12.4084 11.8952 12.6147 11.5052C12.6522 11.4358 12.6897 11.3683 12.7253 11.3008C12.8678 11.0327 13.0141 10.7646 13.1659 10.4983C13.2841 10.2883 13.4022 10.0764 13.5297 9.87395C13.8634 9.33957 14.3134 8.76957 14.8797 8.47145C15.2359 8.2802 15.6372 8.19207 15.9953 8.0027C16.4022 7.79082 16.6403 7.47019 16.9047 7.10457C17.1672 6.74269 17.3041 6.29645 17.5441 5.91582C17.6453 5.75457 17.6303 5.61207 17.8084 5.49957C18.2041 5.25207 18.6784 5.33645 19.1172 5.25207C20.1541 5.05332 20.2459 3.68645 21.0934 3.19332C21.2716 3.0902 21.4534 2.99457 21.6334 2.89895C21.7384 2.8427 21.9409 2.77332 22.0141 2.6702C22.1397 2.49395 21.9016 2.26332 21.8303 2.10207C21.7066 1.82457 21.5209 1.5452 21.3616 1.28645C21.2266 1.06895 21.1066 0.87207 20.8666 0.87207L20.8197 0.87582C20.2778 0.92832 19.7941 1.16645 19.4472 1.58082C19.0253 2.08707 18.9691 2.86895 18.3053 3.14645C17.8741 3.32645 17.3659 3.2552 16.9572 3.50457C16.4734 3.80082 16.3178 4.38582 16.1828 4.89957C16.0816 5.27457 16.0759 5.72645 15.7909 6.02082C15.4047 6.41645 14.8178 6.4652 14.3228 6.67707C14.1897 6.7352 14.0622 6.80457 13.9478 6.89457C13.3197 7.38957 12.9634 8.20144 12.6822 8.92894C12.5678 9.22707 12.4647 9.53082 12.3634 9.83457C12.2697 10.1177 12.1778 10.4008 12.0897 10.6858C12.0447 10.8321 11.9959 10.9783 11.9509 11.1264C11.8366 11.4977 11.7316 11.8783 11.5966 12.2439C11.5028 12.4783 11.4447 12.8364 11.6397 13.0389Z"></path>
<path fill="#ED6C30" d="M23.8949 16.2748C23.8593 16.2373 23.8086 16.2336 23.758 16.2336L23.6999 16.2354L23.668 16.2336C23.5555 16.2261 23.4618 16.1773 23.353 16.1398C22.8524 15.9654 22.528 15.8211 22.0855 15.5229C21.5868 15.1873 21.0149 14.8742 20.3999 14.8461L20.3286 14.8442C19.7211 14.8442 19.1605 15.1648 18.5511 15.1648H18.5474C17.8724 15.1611 17.2893 14.6811 16.7568 14.3267C16.7118 14.2967 16.6668 14.2686 16.618 14.2423C16.1999 14.0061 15.7499 13.9029 15.2961 13.8973C15.2849 13.8973 15.2718 13.8936 15.2605 13.8936C14.9474 13.8936 14.6324 13.9423 14.3249 14.0286C14.0249 14.1111 13.7343 14.2311 13.4568 14.3792C13.0594 14.5908 12.6833 14.84 12.3336 15.1236C12.1405 15.2792 11.9286 15.4573 11.7974 15.6729C11.7261 15.7873 11.6286 16.2223 11.8105 16.2936L11.8349 16.2992C11.9061 16.2992 12.0224 16.2242 12.073 16.1923C12.478 15.9429 12.9055 15.7254 13.3611 15.5829C13.7343 15.4648 14.1261 15.3786 14.5143 15.3636C14.5461 15.3617 14.5799 15.3598 14.6118 15.3598C14.8911 15.3598 15.1686 15.4029 15.4386 15.5079L15.4499 15.5136C15.8268 15.6636 16.1418 15.9223 16.453 16.1754C16.9105 16.5467 17.4186 16.6292 17.9361 16.6292C18.3393 16.6292 18.748 16.5804 19.1474 16.5804C19.5655 16.5804 19.9705 16.6348 20.3436 16.8542C20.6474 17.0361 20.9211 17.2742 21.1555 17.5273C21.4143 17.8029 21.7443 18.0336 22.1324 18.0936C22.2974 18.1198 22.4474 18.1329 22.6143 18.1348H22.618C22.8993 18.1348 23.0061 17.8104 23.1486 17.6248C23.3436 17.3736 23.4786 17.0848 23.6568 16.8204C23.7318 16.7042 24.0224 16.4023 23.8949 16.2748Z"></path>
</svg>
