<svg xmlns="http://www.w3.org/2000/svg" fill="none" viewBox="0 0 331 30" height="30" width="331">
<rect fill-opacity="0.15" fill="#203332" height="6" width="184" y="12" x="130"></rect>
<path fill="#8DD433" d="M15 30C22.2569 30 28.3101 24.8467 29.6999 18H100.3C101.69 24.8467 107.743 30 115 30C122.257 30 128.31 24.8467 129.7 18H130V15V12H129.7C128.31 5.15328 122.257 0 115 0C107.743 0 101.69 5.15328 100.3 12H29.6999C28.3101 5.15328 22.2569 0 15 0C6.71573 0 0 6.71573 0 15C0 23.2843 6.71573 30 15 30Z" clip-rule="evenodd" fill-rule="evenodd"></path>
<circle fill="#C4C4C4" r="15" cy="15" cx="215"></circle>
<circle fill="#C4C4C4" r="15" cy="15" cx="316"></circle>
<g clip-path="url(#clip0)">
<path stroke-linejoin="round" stroke-linecap="round" stroke-width="2" stroke="white" d="M11.75 22.5C12.1642 22.5 12.5 22.1642 12.5 21.75C12.5 21.3358 12.1642 21 11.75 21C11.3358 21 11 21.3358 11 21.75C11 22.1642 11.3358 22.5 11.75 22.5Z"></path>
<path stroke-linejoin="round" stroke-linecap="round" stroke-width="2" stroke="white" d="M20 22.5C20.4142 22.5 20.75 22.1642 20.75 21.75C20.75 21.3358 20.4142 21 20 21C19.5858 21 19.25 21.3358 19.25 21.75C19.25 22.1642 19.5858 22.5 20 22.5Z"></path>
<path stroke-linejoin="round" stroke-linecap="round" stroke-width="2" stroke="white" d="M5.75 6.75H8.75L10.76 16.7925C10.8286 17.1378 11.0164 17.448 11.2907 17.6687C11.5649 17.8895 11.908 18.0067 12.26 18H19.55C19.902 18.0067 20.2451 17.8895 20.5193 17.6687C20.7936 17.448 20.9814 17.1378 21.05 16.7925L22.25 10.5H9.5"></path>
</g>
<g clip-path="url(#clip1)">
<path stroke-linejoin="round" stroke-linecap="round" stroke-width="2" stroke="white" d="M121.75 13.5C121.75 18.75 115 23.25 115 23.25C115 23.25 108.25 18.75 108.25 13.5C108.25 11.7098 108.961 9.9929 110.227 8.72703C111.493 7.46116 113.21 6.75 115 6.75C116.79 6.75 118.507 7.46116 119.773 8.72703C121.039 9.9929 121.75 11.7098 121.75 13.5Z"></path>
<path stroke-linejoin="round" stroke-linecap="round" stroke-width="2" stroke="white" d="M115 15.75C116.243 15.75 117.25 14.7426 117.25 13.5C117.25 12.2574 116.243 11.25 115 11.25C113.757 11.25 112.75 12.2574 112.75 13.5C112.75 14.7426 113.757 15.75 115 15.75Z"></path>
</g>
<path stroke-linejoin="round" stroke-linecap="round" stroke-width="2" stroke="white" d="M317.5 7.5H311.5C311.102 7.5 310.721 7.65804 310.439 7.93934C310.158 8.22064 310 8.60218 310 9V21C310 21.3978 310.158 21.7794 310.439 22.0607C310.721 22.342 311.102 22.5 311.5 22.5H320.5C320.898 22.5 321.279 22.342 321.561 22.0607C321.842 21.7794 322 21.3978 322 21V12L317.5 7.5Z"></path>
<path stroke-linejoin="round" stroke-linecap="round" stroke-width="2" stroke="white" d="M317.5 7.5V12H322"></path>
<path stroke-linejoin="round" stroke-linecap="round" stroke-width="2" stroke="white" d="M319 15.75H313"></path>
<path stroke-linejoin="round" stroke-linecap="round" stroke-width="2" stroke="white" d="M319 18.75H313"></path>
<path stroke-linejoin="round" stroke-linecap="round" stroke-width="2" stroke="white" d="M314.5 12.75H313.75H313"></path>
<circle stroke-width="2" stroke="white" r="8" cy="15" cx="215"></circle>
<path fill="white" d="M211.457 18.048C211.127 18.048 210.793 18.0293 210.457 17.992C210.127 17.9493 209.831 17.896 209.569 17.832V16.736C209.82 16.7627 210.113 16.7813 210.449 16.792C210.785 16.8027 211.097 16.808 211.385 16.808C211.668 16.808 211.884 16.7733 212.033 16.704C212.188 16.6347 212.265 16.504 212.265 16.312V16.16C212.265 16.016 212.217 15.9067 212.121 15.832C212.031 15.7573 211.913 15.72 211.769 15.72H211.305C210.708 15.72 210.255 15.5893 209.945 15.328C209.636 15.0667 209.481 14.6267 209.481 14.008V13.728C209.481 13.1467 209.649 12.7173 209.985 12.44C210.327 12.1573 210.82 12.016 211.465 12.016C211.812 12.016 212.145 12.04 212.465 12.088C212.785 12.136 213.06 12.1867 213.289 12.24V13.328C213.044 13.312 212.769 13.296 212.465 13.28C212.161 13.264 211.884 13.256 211.633 13.256C211.377 13.256 211.172 13.2907 211.017 13.36C210.868 13.4293 210.793 13.576 210.793 13.8V13.912C210.793 14.2427 210.993 14.408 211.393 14.408H211.945C212.308 14.408 212.609 14.4773 212.849 14.616C213.095 14.7493 213.276 14.936 213.393 15.176C213.516 15.4107 213.577 15.6773 213.577 15.976V16.272C213.577 16.7627 213.489 17.136 213.313 17.392C213.143 17.648 212.897 17.8213 212.577 17.912C212.257 18.0027 211.884 18.048 211.457 18.048ZM214.459 18.016C214.342 18.016 214.283 17.9573 214.283 17.84V16.96C214.283 16.8373 214.342 16.776 214.459 16.776H215.259C215.387 16.776 215.451 16.8373 215.451 16.96V17.84C215.451 17.9093 215.432 17.9573 215.395 17.984C215.358 18.0053 215.312 18.016 215.259 18.016H214.459ZM216.076 18.576L218.324 11.84H219.74L217.492 18.576H216.076Z"></path>
<defs>
<clipPath id="clip0">
<rect transform="translate(5 6)" fill="white" height="18" width="18"></rect>
</clipPath>
<clipPath id="clip1">
<rect transform="translate(106 6)" fill="white" height="18" width="18"></rect>
</clipPath>
</defs>
</svg>






