<svg xmlns="http://www.w3.org/2000/svg" fill="none" viewBox="0 0 24 24" height="24" width="24">
<path fill="url(#paint0_radial)" d="M11.925 23.4C7.27312 23.4 2.25 20.4825 2.25 14.0794C2.25 7.67629 7.27312 4.75879 11.925 4.75879C14.5087 4.75879 16.8937 5.60816 18.6619 7.15879C20.5781 8.86129 21.5963 11.2613 21.5963 14.0794C21.5963 16.8975 20.5781 19.2825 18.6619 20.9832C16.8937 22.5338 14.4919 23.4 11.925 23.4Z"></path>
<path fill="#EB8F00" d="M19.9105 8.53882C20.8255 10.0576 21.2942 11.8051 21.2623 13.5788C21.2623 16.3913 20.2442 18.7819 18.328 20.4826C16.5598 22.0332 14.1598 22.8994 11.5911 22.8994C8.57984 22.8994 5.41672 21.6751 3.55859 19.0744C5.35297 22.0201 8.72609 23.4001 11.9248 23.4001C14.4917 23.4001 16.8936 22.5338 18.6617 20.9832C20.578 19.2807 21.5961 16.8976 21.5961 14.0794C21.5961 11.9551 21.0167 10.0669 19.9105 8.53882Z"></path>
<path fill="url(#paint1_radial)" d="M6.33789 16.519C8.15007 16.519 9.61914 15.1339 9.61914 13.4253C9.61914 11.7167 8.15007 10.3315 6.33789 10.3315C4.52571 10.3315 3.05664 11.7167 3.05664 13.4253C3.05664 15.1339 4.52571 16.519 6.33789 16.519Z" opacity="0.8"></path>
<path fill="url(#paint2_radial)" d="M17.6626 16.519C19.4748 16.519 20.9438 15.1339 20.9438 13.4253C20.9438 11.7167 19.4748 10.3315 17.6626 10.3315C15.8504 10.3315 14.3813 11.7167 14.3813 13.4253C14.3813 15.1339 15.8504 16.519 17.6626 16.519Z" opacity="0.8"></path>
<path fill="#FF00A2" d="M4.5 3.75C5.22487 3.75 5.8125 3.33027 5.8125 2.8125C5.8125 2.29473 5.22487 1.875 4.5 1.875C3.77513 1.875 3.1875 2.29473 3.1875 2.8125C3.1875 3.33027 3.77513 3.75 4.5 3.75Z"></path>
<path fill="#FD3B3B" d="M10.0216 5.4882C10.3292 5.18065 10.252 4.60487 9.84924 4.20215C9.4465 3.79943 8.87072 3.72227 8.56318 4.02981C8.25565 4.33736 8.33283 4.91314 8.73556 5.31586C9.1383 5.71858 9.71409 5.79574 10.0216 5.4882Z"></path>
<path fill="#00EEFF" d="M14.043 3.99305C14.7309 3.46064 15.0881 2.77013 14.8409 2.45076C14.5937 2.13139 13.8357 2.3041 13.1478 2.83651C12.46 3.36893 12.1027 4.05944 12.3499 4.37881C12.5971 4.69818 13.3551 4.52547 14.043 3.99305Z"></path>
<path fill="#0048FF" d="M4.8669 16.3701C5.12697 16.2199 5.06497 15.6256 4.72842 15.0427C4.39188 14.4598 3.90822 14.109 3.64815 14.2591C3.38808 14.4093 3.45007 15.0036 3.78662 15.5865C4.12317 16.1694 4.60683 16.5202 4.8669 16.3701Z"></path>
<path fill="#F63BBE" d="M18.0938 21.75C18.4562 21.75 18.75 21.2883 18.75 20.7188C18.75 20.1492 18.4562 19.6875 18.0938 19.6875C17.7313 19.6875 17.4375 20.1492 17.4375 20.7188C17.4375 21.2883 17.7313 21.75 18.0938 21.75Z"></path>
<path fill="#00CC00" d="M21.8497 11.0121C22.4001 10.6246 22.7497 10.1733 22.6304 10.0039C22.5112 9.83456 21.9684 10.0114 21.418 10.3988C20.8676 10.7863 20.518 11.2376 20.6372 11.407C20.7565 11.5763 21.2993 11.3995 21.8497 11.0121Z"></path>
<path fill="#0048FF" d="M4.21508 22.6944C4.43153 22.5524 4.3307 22.0161 3.98986 21.4966C3.64902 20.9772 3.19724 20.6712 2.98079 20.8132C2.76434 20.9552 2.86517 21.4914 3.20601 22.0109C3.54685 22.5304 3.99862 22.8364 4.21508 22.6944Z"></path>
<path fill="#7ACDED" d="M2.84566 19.0302C3.46543 18.9863 3.95302 18.7414 3.93473 18.4832C3.91643 18.2249 3.39918 18.0512 2.77941 18.0951C2.15965 18.139 1.67206 18.3839 1.69035 18.6421C1.70864 18.9004 2.22589 19.0741 2.84566 19.0302Z"></path>
<path fill="#FF82B2" d="M4.5221 16.5747C5.26605 16.5253 5.85967 16.3428 5.848 16.1671C5.83633 15.9915 5.22379 15.8892 4.47984 15.9386C3.7359 15.988 3.14227 16.1705 3.15394 16.3461C3.16561 16.5218 3.77816 16.6241 4.5221 16.5747Z"></path>
<path fill="url(#paint3_linear)" d="M22.2941 14.6626C22.1348 14.1114 21.7541 13.6501 21.2441 13.3876C20.3816 12.9189 19.3016 13.2395 18.8348 14.102C18.831 14.1076 18.8291 14.1132 18.8254 14.1189C18.6379 14.4722 18.5977 14.8854 18.7136 15.2682C18.8295 15.6511 19.0921 15.9726 19.4441 16.1626C19.7348 16.3257 20.076 16.3726 20.4004 16.2939C20.7341 16.2189 21.0154 15.9995 21.1691 15.6939C21.336 15.3414 21.321 14.9289 21.1316 14.5876C21.0561 14.4401 20.9441 14.3145 20.8063 14.2226C20.6684 14.1307 20.5093 14.0756 20.3441 14.0626C20.151 14.0589 19.9935 14.2126 19.9898 14.4057C19.9879 14.5801 20.1154 14.7301 20.2879 14.7564C20.3835 14.762 20.4698 14.8201 20.5129 14.9064C20.5785 15.0395 20.5916 15.1951 20.5504 15.3376C20.5192 15.3997 20.4742 15.4539 20.419 15.4961C20.3638 15.5384 20.2997 15.5675 20.2316 15.5814C20.0798 15.6207 19.9185 15.6001 19.7816 15.5251C19.5941 15.4257 19.4535 15.257 19.3879 15.0564C19.3316 14.8501 19.3523 14.6307 19.4441 14.4376C19.5089 14.3112 19.5989 14.1995 19.7086 14.1092C19.8182 14.0189 19.9452 13.952 20.0816 13.9126C20.3573 13.8339 20.6498 13.8601 20.9066 13.9876C21.2423 14.1714 21.4916 14.4826 21.6004 14.8501C21.7148 15.2195 21.6735 15.6189 21.4879 15.9564C21.1316 16.6314 20.4379 17.0814 19.4254 17.0814C18.8441 17.0814 15.3848 16.9876 15.3848 16.9876L15.426 17.8501L19.3879 17.7939C20.5691 17.7939 21.5441 17.3251 22.1066 16.2751C22.4029 15.7914 22.4704 15.2007 22.2941 14.6626Z"></path>
<path fill="#7F0099" d="M13.125 17.4374C13.2394 17.5593 13.3275 17.7018 13.3875 17.8574L15.5344 17.8443C15.5344 17.563 15.4969 17.2818 15.4969 16.9818C14.9344 16.963 13.7756 16.9443 13.4156 16.9312C13.3639 17.1246 13.2594 17.2999 13.1138 17.4374H13.125Z"></path>
<path fill="#FF4545" d="M19.6508 10.275L20.307 10.3687L20.4758 9.7125L20.5695 9.3375L16.8008 8.8125C18.507 10.1062 19.5383 10.275 19.6508 10.275Z"></path>
<path fill="#FF4545" d="M22.6691 1.0127L21.1504 1.8752L20.7754 2.08145L22.3504 2.30645C22.4629 1.8377 22.6691 1.0127 22.6691 1.0127Z"></path>
<path fill="#FF4545" d="M19.3131 2.90625L17.7568 3.7875L21.8256 4.36875L22.0881 3.3L19.3131 2.90625Z"></path>
<path fill="#FF4545" d="M14.8693 5.41904H14.8506L21.3193 6.35654L21.5631 5.36279L16.2943 4.61279L14.8693 5.41904Z"></path>
<path fill="#FF4545" d="M15.4131 7.57529L20.8131 8.34404L21.0756 7.33154L14.5693 6.39404C14.6443 6.60029 14.8693 7.01279 15.4131 7.57529Z"></path>
<path fill="#FF9C9C" d="M16.2939 4.6126L21.5627 5.3626L21.8252 4.36885L17.7564 3.7876L16.2939 4.6126Z"></path>
<path fill="#FF9C9C" d="M22.2377 2.71885C22.2377 2.71885 22.2939 2.45635 22.3314 2.3251L20.7564 2.1001L19.2939 2.9251L22.0689 3.31885L22.2377 2.71885Z"></path>
<path fill="#FF9C9C" d="M14.3066 5.71875L14.5129 6.31875C14.5204 6.3525 14.5335 6.38438 14.5504 6.4125L21.0566 7.35L21.3004 6.35625L14.8316 5.4375L14.3066 5.71875Z"></path>
<path fill="#FF9C9C" d="M16.7256 8.75625C16.7443 8.775 16.7818 8.79375 16.8006 8.8125L20.5693 9.35625L20.8131 8.3625L15.4131 7.59375C15.8237 8.01 16.2625 8.39813 16.7256 8.75625Z"></path>
<path fill="#C93737" d="M22.65 2.11885C23.1471 2.11885 23.55 1.7159 23.55 1.21885C23.55 0.721791 23.1471 0.318848 22.65 0.318848C22.1529 0.318848 21.75 0.721791 21.75 1.21885C21.75 1.7159 22.1529 2.11885 22.65 2.11885Z"></path>
<path fill="#422B0D" d="M13.4701 17.2182C13.7459 16.9798 13.9186 16.6438 13.9519 16.2807C14.0044 15.9151 13.8957 15.5457 13.6519 15.2682C13.2151 14.6945 12.0001 14.837 12.0001 14.837C11.6738 14.8501 11.2969 15.0057 11.3438 15.3807C11.374 15.4864 11.4321 15.582 11.5119 15.6576C11.5917 15.7331 11.6904 15.7858 11.7976 15.8101C12.2776 15.9245 12.9619 15.8101 12.9807 16.2976C13.0032 16.8451 12.1632 16.6201 12.0957 17.1995C12.0282 17.7789 12.9807 17.702 12.9807 18.1014C12.9807 18.407 12.6676 18.4595 12.3376 18.5289C12.0544 18.587 11.5107 18.6751 11.4676 18.9995C11.4244 19.3239 11.6101 19.7232 12.3751 19.607C13.5788 19.4195 13.9838 18.7651 13.9838 18.3601C13.9913 17.9214 13.8038 17.5032 13.4701 17.2182Z"></path>
<path fill="#422B0D" d="M9.34883 12.2683L9.3207 12.2327L9.2457 12.1371L9.15008 12.034C9.11258 11.9927 9.06758 11.9477 9.02258 11.9027C8.9757 11.8577 8.92695 11.8146 8.87445 11.7752C8.82758 11.7396 8.77883 11.7077 8.72633 11.6796C8.6907 11.659 8.65133 11.644 8.61008 11.6365C8.59765 11.6346 8.58501 11.6346 8.57258 11.6365H8.55758H8.59133H8.49383C8.46945 11.6365 8.49383 11.6365 8.49383 11.6365H8.50695C8.52195 11.6365 8.50695 11.6365 8.50695 11.6365C8.5002 11.6346 8.49307 11.6346 8.48633 11.6365C8.44508 11.644 8.4057 11.659 8.37008 11.6796C8.31758 11.7077 8.26883 11.7396 8.22195 11.7752C8.1732 11.8127 8.12258 11.8577 8.07383 11.9027C7.98195 11.9927 7.90133 12.0902 7.84508 12.1483L7.75508 12.2552L7.71383 12.3021C7.59048 12.4386 7.4212 12.525 7.23827 12.5447C7.05534 12.5644 6.87155 12.5161 6.72195 12.409C6.52507 12.2721 6.42382 12.034 6.46132 11.7958C6.46132 11.7958 6.47445 11.7246 6.5082 11.6083C6.5607 11.4283 6.6357 11.2558 6.72945 11.0946C6.8757 10.8283 7.07445 10.594 7.31258 10.4065C7.4757 10.2827 7.6557 10.1833 7.84883 10.114C7.90133 10.0933 7.95758 10.0765 8.01195 10.0633C8.07383 10.0446 8.1357 10.0315 8.19945 10.0221L8.3082 10.0071H8.72445C8.78258 10.0071 8.84258 10.0221 8.9007 10.0315C9.21678 10.0887 9.51488 10.2197 9.7707 10.414C10.0126 10.5977 10.217 10.8283 10.367 11.0927C10.4213 11.1846 10.4701 11.2821 10.5095 11.3815C10.5451 11.464 10.5713 11.5521 10.5938 11.6177C10.6163 11.6833 10.6145 11.7152 10.622 11.7471V11.7902C10.6461 11.9642 10.6003 12.1407 10.4945 12.281C10.3887 12.4212 10.2315 12.5138 10.0576 12.5383C10.0501 12.5402 10.0426 12.5402 10.037 12.5402C9.77633 12.5796 9.51195 12.4765 9.34883 12.2683Z"></path>
<path fill="#422B0D" d="M16.3125 12.2683L16.2844 12.2327L16.2094 12.1371L16.125 12.034C16.0875 11.9927 16.0425 11.9477 15.9975 11.9027C15.9506 11.8577 15.9019 11.8146 15.8494 11.7752C15.8025 11.7396 15.7538 11.7077 15.7013 11.6796C15.6656 11.659 15.6263 11.644 15.5869 11.6365C15.5745 11.6346 15.5618 11.6346 15.5494 11.6365H15.5344H15.5625H15.465C15.4388 11.6365 15.465 11.6365 15.465 11.6365H15.4781C15.4931 11.6365 15.4781 11.6365 15.4781 11.6365H15.4575C15.4181 11.644 15.3788 11.659 15.3431 11.6796C15.2906 11.7077 15.2419 11.7396 15.195 11.7752C15.1425 11.8146 15.0938 11.8577 15.0469 11.9027C14.9531 11.9927 14.8744 12.0902 14.8163 12.1483L14.7263 12.2552L14.685 12.3021C14.5617 12.4386 14.3924 12.525 14.2095 12.5447C14.0265 12.5644 13.8427 12.5161 13.6931 12.409C13.4963 12.2721 13.395 12.034 13.4325 11.7958C13.4325 11.7958 13.4456 11.7246 13.4813 11.6083C13.5281 11.4265 13.5975 11.2502 13.6875 11.0852C13.8375 10.8208 14.0419 10.5902 14.2838 10.4065C14.4469 10.2827 14.6288 10.1833 14.8219 10.114C14.8744 10.0933 14.9288 10.0765 14.9831 10.0633C15.045 10.0446 15.1069 10.0315 15.1706 10.0221L15.2794 10.0071H15.6956C15.7556 10.0071 15.8138 10.0221 15.8719 10.0315C16.1888 10.0858 16.4869 10.2152 16.7438 10.4065C16.9856 10.5902 17.1881 10.8208 17.34 11.0852C17.3944 11.1771 17.4413 11.2746 17.4806 11.374C17.5144 11.4508 17.5425 11.5296 17.565 11.6102C17.5781 11.6533 17.5875 11.6965 17.5931 11.7396V11.7827C17.6055 11.8684 17.6009 11.9557 17.5795 12.0396C17.5582 12.1235 17.5205 12.2024 17.4686 12.2717C17.4167 12.341 17.3516 12.3994 17.2771 12.4436C17.2026 12.4877 17.1201 12.5167 17.0344 12.529C17.0269 12.5308 17.0194 12.5308 17.01 12.5327C16.7475 12.574 16.4813 12.4746 16.3125 12.2683Z"></path>
<defs>
<radialGradient gradientTransform="translate(11.9231 14.0794) scale(9.49856)" gradientUnits="userSpaceOnUse" r="1" cy="0" cx="0" id="paint0_radial">
<stop stop-color="#FDE030" offset="0.5"></stop>
<stop stop-color="#F7C02B" offset="0.92"></stop>
<stop stop-color="#F4A223" offset="1"></stop>
</radialGradient>
<radialGradient gradientTransform="translate(6.33795 14.0851) scale(3.57136 3.20694)" gradientUnits="userSpaceOnUse" r="1" cy="0" cx="0" id="paint1_radial">
<stop stop-color="#ED7770"></stop>
<stop stop-opacity="0" stop-color="#ED7770" offset="0.9"></stop>
</radialGradient>
<radialGradient gradientTransform="translate(23.7226 219.861) scale(3.64312)" gradientUnits="userSpaceOnUse" r="1" cy="0" cx="0" id="paint2_radial">
<stop stop-color="#ED7770"></stop>
<stop stop-opacity="0" stop-color="#ED7770" offset="0.9"></stop>
</radialGradient>
<linearGradient gradientUnits="userSpaceOnUse" y2="15.5112" x2="22.3841" y1="15.5112" x1="15.411" id="paint3_linear">
<stop stop-color="#004054"></stop>
<stop stop-color="#45A4FF" offset="0.99"></stop>
</linearGradient>
</defs>
</svg>

