<svg xmlns="http://www.w3.org/2000/svg" fill="none" viewBox="0 0 18 18" height="18" width="18">
<circle stroke-width="2" stroke="white" r="8" cy="9" cx="9"></circle>
<path fill="white" d="M5.45725 12.048C5.12658 12.048 4.79325 12.0293 4.45725 11.992C4.12658 11.9493 3.83058 11.896 3.56925 11.832V10.736C3.81992 10.7627 4.11325 10.7813 4.44925 10.792C4.78525 10.8027 5.09725 10.808 5.38525 10.808C5.66792 10.808 5.88392 10.7733 6.03325 10.704C6.18792 10.6347 6.26525 10.504 6.26525 10.312V10.16C6.26525 10.016 6.21725 9.90667 6.12125 9.832C6.03058 9.75733 5.91325 9.72 5.76925 9.72H5.30525C4.70792 9.72 4.25458 9.58933 3.94525 9.328C3.63592 9.06667 3.48125 8.62667 3.48125 8.008V7.728C3.48125 7.14667 3.64925 6.71733 3.98525 6.44C4.32658 6.15733 4.81992 6.016 5.46525 6.016C5.81192 6.016 6.14525 6.04 6.46525 6.088C6.78525 6.136 7.05992 6.18667 7.28925 6.24V7.328C7.04392 7.312 6.76925 7.296 6.46525 7.28C6.16125 7.264 5.88392 7.256 5.63325 7.256C5.37725 7.256 5.17192 7.29067 5.01725 7.36C4.86792 7.42933 4.79325 7.576 4.79325 7.8V7.912C4.79325 8.24267 4.99325 8.408 5.39325 8.408H5.94525C6.30792 8.408 6.60925 8.47733 6.84925 8.616C7.09458 8.74933 7.27592 8.936 7.39325 9.176C7.51592 9.41067 7.57725 9.67733 7.57725 9.976V10.272C7.57725 10.7627 7.48925 11.136 7.31325 11.392C7.14258 11.648 6.89725 11.8213 6.57725 11.912C6.25725 12.0027 5.88392 12.048 5.45725 12.048ZM8.459 12.016C8.34167 12.016 8.283 11.9573 8.283 11.84V10.96C8.283 10.8373 8.34167 10.776 8.459 10.776H9.259C9.387 10.776 9.451 10.8373 9.451 10.96V11.84C9.451 11.9093 9.43233 11.9573 9.395 11.984C9.35767 12.0053 9.31233 12.016 9.259 12.016H8.459ZM10.0758 12.576L12.3238 5.84H13.7398L11.4918 12.576H10.0758Z"></path>
</svg>

